HIERARCHY
ROOT hip
{
  OFFSET 0.0 0.0 0.0
  CHANNELS 6 Xposition Yposition Zposition Zrotation Yrotation Xrotation
  JOINT abdomen
  {
    OFFSET 0.0 20.6881 -0.73152
    CHANNELS 3 Zrotation Xrotation Yrotation
    JOINT chest
    {
      OFFSET 0.0 11.7043 -0.48768
      CHANNELS 3 Zrotation Xrotation Yrotation
      JOINT neck
      {
        OFFSET 0.0 22.1894 -2.19456
        CHANNELS 3 Zrotation Xrotation Yrotation
        JOINT head
        {
          OFFSET -0.24384 7.07133 1.2192
          CHANNELS 3 Zrotation Xrotation Yrotation
          JOINT leftEye
          {
            OFFSET 4.14528 8.04674 8.04672
            CHANNELS 3 Zrotation Xrotation Yrotation
            End Site
            {
              OFFSET 1.0 0.0 0.0
            }
          }
          JOINT rightEye
          {
            OFFSET -3.6576 8.04674 8.04672
            CHANNELS 3 Zrotation Xrotation Yrotation
            End Site
            {
              OFFSET 1.0 0.0 0.0
            }
          }
        }
      }
      JOINT rCollar
      {
        OFFSET -2.68224 19.2634 -4.8768
        CHANNELS 3 Zrotation Xrotation Yrotation
        JOINT rShldr
        {
          OFFSET -8.77824 -1.95073 1.46304
          CHANNELS 3 Zrotation Xrotation Yrotation
          JOINT rForeArm
          {
            OFFSET -28.1742 -1.7115 0.48768
            CHANNELS 3 Zrotation Xrotation Yrotation
            JOINT rHand
            {
              OFFSET -22.5879 0.773209 7.07136
              CHANNELS 3 Zrotation Xrotation Yrotation
              JOINT rThumb1
              {
                OFFSET -1.2192 -0.487915 3.41376
                CHANNELS 3 Zrotation Xrotation Yrotation
                JOINT rThumb2
                {
                  OFFSET -3.37035 -0.52449 3.41376
                  CHANNELS 3 Zrotation Xrotation Yrotation
                  End Site
                  {
                    OFFSET -1.78271 -1.18214 1.43049
                  }
                }
              }
              JOINT rIndex1
              {
                OFFSET -7.75947 0.938293 5.60832
                CHANNELS 3 Zrotation Xrotation Yrotation
                JOINT rIndex2
                {
                  OFFSET -2.54057 -0.884171 1.56538
                  CHANNELS 3 Zrotation Xrotation Yrotation
                  End Site
                  {
                    OFFSET -1.62519 -0.234802 1.16502
                  }
                }
              }
              JOINT rMid1
              {
                OFFSET -8.24714 1.18213 3.41376
                CHANNELS 3 Zrotation Xrotation Yrotation
                JOINT rMid2
                {
                  OFFSET -3.10165 -0.590103 1.0647
                  CHANNELS 3 Zrotation Xrotation Yrotation
                  End Site
                  {
                    OFFSET -2.48547 -0.328903 0.83742
                  }
                }
              }
              JOINT rRing1
              {
                OFFSET -8.82822 0.546677 1.51678
                CHANNELS 3 Zrotation Xrotation Yrotation
                JOINT rRing2
                {
                  OFFSET -2.60934 -0.819778 -0.0198488
                  CHANNELS 3 Zrotation Xrotation Yrotation
                  End Site
                  {
                    OFFSET -2.33842 -0.294052 0.168128
                  }
                }
              }
              JOINT rPinky1
              {
                OFFSET -8.27202 -0.0477905 -0.4584
                CHANNELS 3 Zrotation Xrotation Yrotation
                JOINT rPinky2
                {
                  OFFSET -1.82734 -0.647385 -0.700984
                  CHANNELS 3 Zrotation Xrotation Yrotation
                  End Site
                  {
                    OFFSET -1.69225 -0.51767 -0.607171
                  }
                }
              }
            }
          }
        }
      }
      JOINT lCollar
      {
        OFFSET 2.68224 19.2634 -4.8768
        CHANNELS 3 Zrotation Xrotation Yrotation
        JOINT lShldr
        {
          OFFSET 8.77824 -1.95073 1.46304
          CHANNELS 3 Zrotation Xrotation Yrotation
          JOINT lForeArm
          {
            OFFSET 28.1742 -1.7115 0.48768
            CHANNELS 3 Zrotation Xrotation Yrotation
            JOINT lHand
            {
              OFFSET 22.5879 0.773209 7.07136
              CHANNELS 3 Zrotation Xrotation Yrotation
              JOINT lThumb1
              {
                OFFSET 1.2192 -0.487915 3.41376
                CHANNELS 3 Zrotation Xrotation Yrotation
                JOINT lThumb2
                {
                  OFFSET 3.37035 -0.52449 3.41376
                  CHANNELS 3 Zrotation Xrotation Yrotation
                  End Site
                  {
                    OFFSET 1.78271 -1.18214 1.43049
                  }
                }
              }
              JOINT lIndex1
              {
                OFFSET 7.75947 0.938293 5.60832
                CHANNELS 3 Zrotation Xrotation Yrotation
                JOINT lIndex2
                {
                  OFFSET 2.54057 -0.884171 1.56538
                  CHANNELS 3 Zrotation Xrotation Yrotation
                  End Site
                  {
                    OFFSET 1.62519 -0.234802 1.16502
                  }
                }
              }
              JOINT lMid1
              {
                OFFSET 8.24714 1.18213 3.41376
                CHANNELS 3 Zrotation Xrotation Yrotation
                JOINT lMid2
                {
                  OFFSET 3.10165 -0.590103 1.0647
                  CHANNELS 3 Zrotation Xrotation Yrotation
                  End Site
                  {
                    OFFSET 2.48547 -0.328903 0.83742
                  }
                }
              }
              JOINT lRing1
              {
                OFFSET 8.82822 0.546677 1.51678
                CHANNELS 3 Zrotation Xrotation Yrotation
                JOINT lRing2
                {
                  OFFSET 2.60934 -0.819778 -0.0198488
                  CHANNELS 3 Zrotation Xrotation Yrotation
                  End Site
                  {
                    OFFSET 2.33842 -0.294052 0.168128
                  }
                }
              }
              JOINT lPinky1
              {
                OFFSET 8.27202 -0.0477905 -0.4584
                CHANNELS 3 Zrotation Xrotation Yrotation
                JOINT lPinky2
                {
                  OFFSET 1.82734 -0.647385 -0.700984
                  CHANNELS 3 Zrotation Xrotation Yrotation
                  End Site
                  {
                    OFFSET 1.69225 -0.51767 -0.607171
                  }
                }
              }
            }
          }
        }
      }
    }
  }
  JOINT rButtock
  {
    OFFSET -8.77824 4.35084 1.2192
    CHANNELS 3 Zrotation Xrotation Yrotation
    JOINT rThigh
    {
      OFFSET 0.0 -1.70687 -2.19456
      CHANNELS 3 Zrotation Xrotation Yrotation
      JOINT rShin
      {
        OFFSET 0.0 -36.8199 0.73152
        CHANNELS 3 Zrotation Xrotation Yrotation
        JOINT rFoot
        {
          OFFSET 0.73152 -45.1104 -5.12064
          CHANNELS 3 Zrotation Xrotation Yrotation
          End Site
          {
            OFFSET -1.1221 -3.69964 12.103
          }
        }
      }
    }
  }
  JOINT lButtock
  {
    OFFSET 8.77824 4.35084 1.2192
    CHANNELS 3 Zrotation Xrotation Yrotation
    JOINT lThigh
    {
      OFFSET 0.0 -1.70687 -2.19456
      CHANNELS 3 Zrotation Xrotation Yrotation
      JOINT lShin
      {
        OFFSET 0.0 -36.8199 0.73152
        CHANNELS 3 Zrotation Xrotation Yrotation
        JOINT lFoot
        {
          OFFSET -0.73152 -45.1104 -5.12064
          CHANNELS 3 Zrotation Xrotation Yrotation
          End Site
          {
            OFFSET 1.1221 -3.69964 12.103
          }
        }
      }
    }
  }
}
MOTION
Frames: 5
Frame Time: 0.00833333
0.0 72.991 0.0 -0.796 73.1926 -3.3949 4.16162 10.4875 -6.74377 3.3008 0.553494 -1.71094 -0.51169 16.4936 -16.4415 3.48552 -28.7275 -31.6422 -0.0 0.0 0.0 -0.0 0.0 0.0 8.78275e-14 7.15644e-14 6.21202e-15 78.6223 15.4448 -3.16795 -10.9028 -4.7083 19.5057 -0.13346 -9.55719 -1.35633 9.58202e-10 6.60589e-10 -3.30288e-09 1.67054e-09 1.14473e-09 -5.70647e-09 9.58203e-10 6.60593e-10 -3.30289e-09 7.73091 5.47488 0.417314 9.58192e-10 6.60588e-10 -3.30287e-09 2.90554 0.965183 0.102902 9.58204e-10 6.60591e-10 -3.30288e-09 10.2786 0.731801 0.0259123 9.58195e-10 6.60593e-10 -3.30287e-09 2.22167 -0.733487 -0.20892 1.89645e-14 -2.22709e-14 5.71009e-14 -37.8801 -20.6408 7.65582 17.6987 -10.3663 -33.3477 0.209672 -12.9907 1.85774 -1.62138e-10 -1.38116e-10 2.81646e-10 -2.84786e-10 -2.40682e-10 4.8691e-10 -1.62145e-10 -1.38116e-10 2.81661e-10 -7.73091 5.47488 -0.417314 -1.6214e-10 -1.38117e-10 2.81646e-10 -2.90554 0.965183 -0.102902 -1.62148e-10 -1.38115e-10 2.81648e-10 -10.2786 0.731801 -0.0259123 -1.62135e-10 -1.38115e-10 2.81641e-10 -2.22167 -0.733487 0.20892 -2.03217e-16 0.0 -3.88251e-19 -34.6669 -24.0391 2.6943 -0.515801 52.5632 1.872 5.7631 28.0338 -11.2026 2.03217e-16 0.0 3.88251e-19 28.9 -25.3497 14.8625 0.620207 51.9991 -1.34234 -4.02606 -21.8457 -5.29051
-0.28190000000000026 73.1766 1.0560000000000116 -0.5625 71.619 -2.9604 3.77061 10.1248 -6.40703 3.20983 0.694099 -1.63884 -0.408853 16.3924 -16.1262 3.60195 -28.3056 -30.9732 -0.0 0.0 0.0 -0.0 0.0 0.0 1.07382e-13 7.90165e-14 2.39745e-14 78.5772 15.3502 -3.14099 -10.859 -4.67992 19.4225 -0.1381 -10.2413 -1.45519 3.40172e-10 2.5929e-10 -1.43384e-09 5.93743e-10 4.48851e-10 -2.47606e-09 3.40172e-10 2.59293e-10 -1.43385e-09 7.73091 5.47488 0.417314 3.40157e-10 2.59286e-10 -1.43382e-09 2.90554 0.965183 0.102902 3.40173e-10 2.59293e-10 -1.43384e-09 10.2786 0.731801 0.0259123 3.40162e-10 2.59296e-10 -1.43383e-09 2.22167 -0.733487 -0.20892 1.63588e-14 -2.55741e-14 6.78667e-14 -37.6367 -20.66 7.67728 17.7253 -10.3943 -33.4068 0.259325 -14.3616 2.06226 -1.34216e-10 -7.63557e-11 1.98823e-10 -2.35033e-10 -1.32922e-10 3.42818e-10 -1.34226e-10 -7.63574e-11 1.98843e-10 -7.73091 5.47488 -0.417314 -1.34217e-10 -7.63562e-11 1.98826e-10 -2.90554 0.965183 -0.102902 -1.34226e-10 -7.63551e-11 1.98829e-10 -10.2786 0.731801 -0.0259123 -1.3421e-10 -7.6355e-11 1.98821e-10 -2.22167 -0.733487 0.20892 -2.03217e-16 0.0 -3.88251e-19 -34.515 -24.3417 1.6515 -0.504994 51.9138 1.80084 5.87099 27.4742 -11.8152 2.03217e-16 0.0 3.88251e-19 28.8604 -23.9609 14.0771 0.558282 50.5429 -1.32884 -2.93087 -21.1439 -3.19183
-0.5833999999999975 73.4117 2.164999999999992 -0.3205 69.9573 -2.5223 3.34856 9.71309 -6.06207 3.10913 0.842023 -1.56501 -0.29268 16.2938 -15.8049 3.677 -27.8282 -30.3002 -0.0 0.0 0.0 -0.0 0.0 0.0 1.33981e-13 8.11833e-14 4.39749e-14 78.5411 15.2016 -3.11546 -10.8082 -4.64705 19.3263 -0.13644 -10.4729 -1.48865 -1.02811e-11 1.31729e-10 -4.29941e-10 -1.66983e-11 2.27375e-10 -7.40961e-10 -1.02811e-11 1.31731e-10 -4.29957e-10 7.73091 5.47488 0.417314 -1.02999e-11 1.31723e-10 -4.29922e-10 2.90554 0.965183 0.102902 -1.02801e-11 1.31732e-10 -4.29945e-10 10.2786 0.731801 0.0259123 -1.02937e-11 1.31736e-10 -4.29938e-10 2.22167 -0.733487 -0.20892 1.51612e-14 -3.71757e-14 8.52196e-14 -37.3768 -20.6734 7.70234 17.7547 -10.4253 -33.4723 0.312427 -15.7059 2.26491 -3.13696e-11 -2.91116e-11 1.56668e-10 -5.6788e-11 -5.06599e-11 2.70781e-10 -3.13809e-11 -2.9114e-11 1.5669e-10 -7.73091 5.47488 -0.417314 -3.1369e-11 -2.91115e-11 1.56671e-10 -2.90554 0.965183 -0.102902 -3.13788e-11 -2.91109e-11 1.56676e-10 -10.2786 0.731801 -0.0259123 -3.13619e-11 -2.91108e-11 1.56668e-10 -2.22167 -0.733487 0.20892 -2.03217e-16 0.0 -3.88251e-19 -34.2446 -24.6509 0.565899 -0.496883 51.3136 1.72625 5.9555 26.5324 -12.6521 2.03217e-16 0.0 3.88251e-19 28.682 -22.5531 13.1101 0.500968 49.0687 -1.31296 -1.82687 -20.0677 -0.961482
-0.9022999999999968 73.6892 3.3079999999999927 -0.0964 68.2607 -2.0916 2.86019 9.24943 -5.69423 2.99515 1.00243 -1.48653 -0.157198 16.2073 -15.4756 3.69351 -27.2897 -29.6248 -0.0 0.0 0.0 -0.0 0.0 0.0 1.53231e-13 8.49032e-14 6.18663e-14 78.4753 15.0637 -3.07802 -10.7465 -4.6073 19.2092 -0.127366 -10.1221 -1.43763 5.70125e-11 4.66584e-10 -8.00245e-10 1.01131e-10 8.07286e-10 -1.38099e-09 5.70134e-11 4.66584e-10 -8.0026e-10 7.73091 5.47488 0.417314 5.69927e-11 4.66576e-10 -8.00227e-10 2.90554 0.965183 0.102902 5.70148e-11 4.66585e-10 -8.00249e-10 10.2786 0.731801 0.0259123 5.69999e-11 4.66589e-10 -8.00243e-10 2.22167 -0.733487 -0.20892 1.07194e-14 -4.52988e-14 9.68621e-14 -37.0981 -20.686 7.73354 17.7871 -10.4596 -33.5445 0.369982 -17.116 2.47928 2.30058e-10 4.26341e-13 1.83131e-10 3.93802e-10 3.58984e-13 3.20791e-10 2.30048e-10 4.24511e-13 1.83153e-10 -7.73091 5.47488 -0.417314 2.30061e-10 4.26046e-13 1.83132e-10 -2.90554 0.965183 -0.102902 2.30051e-10 4.27576e-13 1.83138e-10 -10.2786 0.731801 -0.0259123 2.30066e-10 4.28026e-13 1.83131e-10 -2.22167 -0.733487 0.20892 -2.03217e-16 0.0 -3.88251e-19 -33.8526 -24.9713 -0.60813 -0.493298 50.801 1.64375 5.98978 25.0073 -13.8708 2.03217e-16 0.0 3.88251e-19 28.3097 -21.0422 11.9236 0.447181 47.4793 -1.29396 -0.720998 -18.5755 1.49509
-1.2385999999999981 74.0073 4.492000000000004 0.0787 66.5296 -1.6954 2.30853 8.74168 -5.29896 2.86863 1.17556 -1.40225 -0.00680359 16.1246 -15.1364 3.66792 -26.6806 -28.9412 -0.0 0.0 0.0 -0.0 0.0 0.0 1.50742e-13 9.70147e-14 7.33018e-14 78.3411 15.0012 -3.01527 -10.6695 -4.5583 19.0631 -0.103829 -9.16268 -1.29872 3.49106e-10 1.09256e-09 -1.94942e-09 6.1111e-10 1.89171e-09 -3.36713e-09 3.49108e-10 1.09256e-09 -1.94944e-09 7.73091 5.47488 0.417314 3.49087e-10 1.09255e-09 -1.94941e-09 2.90554 0.965183 0.102902 3.4911e-10 1.09256e-09 -1.94943e-09 10.2786 0.731801 0.0259123 3.49094e-10 1.09256e-09 -1.94942e-09 2.22167 -0.733487 -0.20892 -1.6186e-15 -3.81669e-14 9.04967e-14 -36.7984 -20.7026 7.77342 17.8228 -10.4974 -33.6239 0.44245 -18.6862 2.72237 5.89428e-10 2.20858e-11 2.46991e-10 1.01265e-09 3.74628e-11 4.37596e-10 5.89421e-10 2.20852e-11 2.4701e-10 -7.73091 5.47488 -0.417314 5.89433e-10 2.20845e-11 2.46988e-10 -2.90554 0.965183 -0.102902 5.89423e-10 2.20878e-11 2.46996e-10 -10.2786 0.731801 -0.0259123 5.89434e-10 2.20888e-11 2.46991e-10 -2.22167 -0.733487 0.20892 -2.03217e-16 0.0 -3.88251e-19 -33.3565 -25.3398 -1.89018 -0.495738 50.3909 1.55325 5.92259 22.9811 -15.4446 2.03217e-16 0.0 3.88251e-19 27.8088 -19.4136 10.5513 0.395788 45.7687 -1.27329 0.315056 -16.7333 4.1378
